<svg viewBox="0 0 51 51" fill="currentColor" xmlns="http://www.w3.org/2000/svg" id="svg189970607_695">
    <path
        d="M25.5 4.66675C14.0208 4.66675 4.66663 14.0209 4.66663 25.5001C4.66663 36.9792 14.0208 46.3334 25.5 46.3334C36.9791 46.3334 46.3333 36.9792 46.3333 25.5001C46.3333 14.0209 36.9791 4.66675 25.5 4.66675ZM35.4583 20.7084L23.6458 32.5209C23.3541 32.8126 22.9583 32.9792 22.5416 32.9792C22.125 32.9792 21.7291 32.8126 21.4375 32.5209L15.5416 26.6251C14.9375 26.0209 14.9375 25.0209 15.5416 24.4167C16.1458 23.8126 17.1458 23.8126 17.75 24.4167L22.5416 29.2084L33.25 18.5001C33.8541 17.8959 34.8541 17.8959 35.4583 18.5001C36.0625 19.1042 36.0625 20.0834 35.4583 20.7084Z"
        fill="currentColor"></path>
</svg>