<svg width="87" height="22" viewBox="0 0 87 22" fill="none" xmlns="http://www.w3.org/2000/svg">
<g clip-path="url(#clip0_308_4)">
<path d="M42.7102 0C40.341 0 37.9717 0 35.6024 0C35.2233 0.0951009 35.2233 0.380403 35.2233 0.697406C35.2233 7.57637 35.2233 14.4553 35.2233 21.3343C35.2233 21.8732 35.4128 21.9683 35.8867 21.9683C37.9717 21.9366 40.0566 21.9366 42.1416 21.9683C42.7102 21.9683 42.8366 21.8098 42.805 21.2709C42.7734 14.4236 42.805 7.54467 42.805 0.697406C42.805 0.475504 42.7418 0.221902 42.7102 0Z" fill="#F5FAFF"/>
<path d="M0.127075 0.729107C0.127075 0.285303 0.253436 0.126801 0.727293 0.126801C7.86673 0.126801 15.0062 0.126801 22.114 0.126801C22.3036 0.126801 22.5247 0.0634006 22.651 0.253602C22.7774 0.221902 22.7774 0.0951009 22.7774 0C15.2273 0 7.614 0 0.0323034 0C0.0323034 1.71182 0.0323034 3.42363 0.0323034 5.10375C0.0323034 5.32565 -0.0624678 5.57925 0.158665 5.76945C0.158665 4.08934 0.158665 2.40922 0.127075 0.729107Z" fill="white"/>
<path d="M24.5142 0C24.5142 0.0317003 24.5142 0.0951009 24.5142 0.126801C27.4205 0.126801 30.2952 0.126801 33.2015 0.126801C33.2647 0.0951009 33.2963 0.0317003 33.3595 0C30.4216 0 27.4837 0 24.5142 0Z" fill="white"/>
<path d="M17.5011 5.67429C17.817 5.67429 18.0381 5.57919 18.2276 5.35729C19.7124 3.64547 21.1971 1.96536 22.6819 0.25354C22.2396 0.348641 21.7973 0.348641 21.3867 0.348641C14.7843 0.348641 8.18189 0.348641 1.5479 0.348641C0.379057 0.348641 0.379057 0.348641 0.379057 1.48985C0.379057 2.63106 0.379057 3.77227 0.379057 4.91348C0.379057 5.23049 0.410647 5.54749 0.189514 5.80109C1.76903 5.80109 3.34855 5.83279 4.92807 5.83279C5.97056 5.83279 5.97056 5.83279 5.97056 6.8472C5.97056 11.6339 5.97056 16.4524 5.97056 21.2391C5.97056 21.8097 6.06533 22.0316 6.69714 21.9999C8.81369 21.9682 10.8987 21.9682 13.0152 21.9999C13.6786 21.9999 13.8682 21.8731 13.8366 21.1757C13.805 16.2622 13.8366 11.3169 13.805 6.4034C13.805 5.80109 13.9629 5.64259 14.5316 5.67429C15.5109 5.70599 16.5218 5.67429 17.5011 5.67429Z" fill="#F5FAFF"/>
<path d="M0.347506 1.48989C0.347506 0.348684 0.347506 0.348684 1.51635 0.348684C8.11875 0.348684 14.7211 0.348684 21.3551 0.348684C21.7974 0.348684 22.2397 0.348684 22.6503 0.253583C22.4924 0.0633817 22.3028 0.126782 22.1133 0.126782C14.9739 0.126782 7.83443 0.126782 0.726591 0.126782C0.252735 0.126782 0.126373 0.285284 0.126373 0.729088C0.157964 2.4092 0.126373 4.08932 0.126373 5.80113C0.347506 5.54753 0.315916 5.23053 0.315916 4.91353C0.379097 3.77232 0.347506 2.6311 0.347506 1.48989Z" fill="white"/>
<path d="M32.2538 0.348703C29.9793 0.348703 27.7048 0.348703 25.4303 0.348703C25.1144 0.348703 24.7669 0.412103 24.5142 0.126801C21.6079 3.61383 18.67 7.13256 15.732 10.6196C15.4161 11 15.4477 11.1902 15.732 11.5389C18.6068 14.8991 21.4499 18.2277 24.293 21.5879C24.5142 21.8732 24.7669 22 25.1144 21.9683C27.61 21.9366 30.1057 21.9683 32.6329 21.9683C32.7593 21.9683 32.9488 22.0634 33.0436 21.8415C32.9488 21.7147 32.854 21.5562 32.7277 21.4294C29.9477 18.1326 27.1678 14.8357 24.3878 11.5389C24.0087 11.0951 24.0403 10.8732 24.3878 10.4611C26.0621 8.55908 27.7048 6.59366 29.3475 4.65994C30.6427 3.17003 31.9063 1.64841 33.2015 0.126801C32.9172 0.348703 32.6013 0.348703 32.2538 0.348703Z" fill="#F5FAFF"/>
<path d="M25.4303 0.348702C27.7048 0.348702 29.9793 0.348702 32.2538 0.348702C32.5697 0.348702 32.9172 0.348702 33.2015 0.126801C30.2952 0.126801 27.4205 0.126801 24.5142 0.126801C24.7669 0.380403 25.1144 0.348702 25.4303 0.348702Z" fill="white"/>
<path d="M51.4292 15.9452C51.0185 15.9135 50.8606 16.0403 50.8606 16.4841C50.8922 17.8155 50.8606 19.1469 50.8606 20.4783C50.829 20.4783 50.7974 20.51 50.7658 20.51C50.3551 19.1469 49.976 17.8155 49.5654 16.4524C49.5022 16.2305 49.5022 15.9452 49.1547 15.9452C48.5861 15.9769 47.9858 15.7867 47.4172 16.072C47.354 16.1037 47.354 16.2622 47.354 16.389C47.354 18.0691 47.354 19.7492 47.354 21.461C47.354 21.7463 47.4804 21.8097 47.7331 21.8414C48.5861 21.9048 48.5861 21.9048 48.5861 21.0172C48.5861 19.7809 48.5861 18.5763 48.5861 17.34C49.0283 18.3861 49.3442 19.4639 49.6917 20.51C50.1024 21.8731 50.1024 21.8414 51.524 21.8414C51.9031 21.8414 52.061 21.778 52.061 21.3342C52.0294 19.7175 52.0294 18.1008 52.061 16.4841C52.1242 15.9452 51.8083 15.9769 51.4292 15.9452Z" fill="white"/>
<path d="M68.5828 15.9453C68.0458 15.9453 67.9194 16.1038 67.9194 16.611C67.951 17.879 67.9194 19.147 67.9194 20.3833C67.4771 19.3689 67.1612 18.3228 66.8769 17.3084C66.4662 15.9136 66.4662 15.9136 65.0131 15.9453C64.5708 15.9453 64.4445 16.0721 64.4445 16.5159C64.476 18.1009 64.476 19.7176 64.4445 21.3026C64.4445 21.8415 64.6972 21.8415 65.0763 21.8415C65.5185 21.8732 65.6765 21.7464 65.6765 21.2709C65.6449 19.9395 65.6765 18.6081 65.6765 17.2767C65.7081 17.2767 65.7397 17.2767 65.8028 17.2767C66.1188 18.3545 66.4347 19.4006 66.7821 20.4784C67.2244 21.9049 67.2244 21.9049 68.7092 21.8732C69.183 21.8732 69.2462 21.683 69.2462 21.3026C69.2146 19.7493 69.2146 18.196 69.2462 16.6427C69.2146 16.1355 69.0883 15.9453 68.5828 15.9453Z" fill="white"/>
<path d="M59.8954 6.14994C60.3061 6.14994 60.5588 6.11824 60.5272 5.61103C60.4956 4.24792 60.5272 2.85311 60.5272 1.49C60.9695 2.59951 61.317 3.74072 61.6961 4.88193C62.1068 6.21334 62.1068 6.18164 63.4967 6.14994C63.9074 6.14994 64.0654 6.02314 64.0654 5.57933C64.0338 4.02602 64.0338 2.47271 64.0654 0.919391C64.0654 0.443887 64.0022 0.221985 63.4336 0.221985C62.8649 0.221985 62.7702 0.412187 62.8018 0.919391C62.8333 2.1557 62.8018 3.39201 62.8018 4.62833C62.7702 4.62833 62.707 4.62832 62.6754 4.66003C62.3911 3.67732 62.1068 2.66291 61.7909 1.6802C61.3802 0.221985 61.3802 0.221985 59.8322 0.253685C59.4215 0.253685 59.3268 0.380486 59.3268 0.79259C59.3584 2.4093 59.3584 4.02602 59.3268 5.64273C59.2952 6.11824 59.5163 6.14994 59.8954 6.14994Z" fill="white"/>
<path d="M56.2941 16.0403C55.4728 15.9135 54.6198 15.9769 53.7985 15.9452C53.4194 15.9452 53.3562 16.1037 53.3562 16.4207C53.3562 17.2449 53.3562 18.0374 53.3562 18.8616C53.3562 19.7175 53.3562 20.5734 53.3562 21.4293C53.3562 21.7463 53.451 21.8414 53.7669 21.8414C54.4619 21.8097 55.1569 21.8731 55.8518 21.8097C56.8627 21.7463 57.4314 21.2708 57.6841 20.3198C57.9368 19.3371 57.9052 18.3227 57.6841 17.34C57.5261 16.6109 57.0207 16.1671 56.2941 16.0403ZM56.5152 19.8126C56.3889 20.5734 55.4412 21.0489 54.7462 20.7636C54.525 20.6685 54.5882 20.51 54.5882 20.3832C54.5882 19.876 54.5882 19.3688 54.5882 18.8616C54.5882 18.3861 54.5882 17.9106 54.5882 17.4034C54.5882 17.1181 54.683 17.0547 54.9673 17.023C56.1993 16.9279 56.5784 17.2449 56.5784 18.4812C56.5784 18.925 56.5784 19.3688 56.5152 19.8126Z" fill="white"/>
<path d="M59.2952 13.9482C59.7375 13.7263 59.232 13.3776 59.2004 13.0923C59.1688 12.8704 59.0425 12.6485 58.9477 12.4266C58.7898 12.0462 58.7582 11.7609 59.1057 11.3805C59.7375 10.7148 59.7059 9.85885 59.3584 9.03464C59.0425 8.30553 58.3475 8.11533 57.6209 8.14703C57.0207 8.14703 56.3889 8.17873 55.7887 8.14703C55.378 8.11533 55.22 8.24213 55.22 8.68594C55.2516 9.47845 55.22 10.271 55.22 11.0635C55.22 11.8877 55.22 12.7119 55.22 13.5678C55.22 13.8531 55.2832 13.9799 55.6307 14.0116C56.4205 14.0433 56.4521 14.0433 56.4521 13.2825C56.4521 12.9655 56.4521 12.6802 56.4521 12.3632C56.4521 12.1413 56.5152 12.0462 56.768 12.0462C57.2418 12.0145 57.6841 12.0145 57.7789 12.6485C57.8104 12.9338 57.9368 13.1874 58.0316 13.441C58.1895 13.9482 58.695 14.2018 59.2952 13.9482ZM57.0839 10.9684C56.2309 11.0318 56.4205 10.5246 56.4205 9.92225C56.3889 9.57355 56.2941 9.06634 57.1155 9.12974C58 9.19314 58.3159 9.38334 58.2843 10.0808C58.2843 10.7782 58 10.905 57.0839 10.9684Z" fill="white"/>
<path d="M79.3235 1.61674C79.0392 0.665729 78.3442 0.190224 77.2386 0.158524C75.9434 0.126824 75.2168 0.507228 74.8693 1.52164C74.4902 2.66285 74.5218 3.80406 74.8693 4.94527C75.0588 5.54757 75.4695 5.99138 76.1013 6.11818C78.1863 6.56198 79.4183 5.86458 79.4815 3.80406C79.4815 3.61386 79.4815 3.45535 79.4815 3.36025C79.5131 2.66285 79.4815 2.12394 79.3235 1.61674ZM78.1547 4.24786C78.0283 4.81847 77.7124 5.13547 77.1122 5.13547C76.512 5.13547 76.1013 4.88187 75.9749 4.27956C75.9118 3.93086 75.8802 3.55046 75.8486 3.17005C75.8802 2.75795 75.8802 2.34584 76.0065 1.93374C76.1961 1.39484 76.5436 1.17293 77.0806 1.17293C77.6492 1.17293 77.9651 1.48994 78.0915 2.02884C78.3126 2.78965 78.3126 3.51875 78.1547 4.24786Z" fill="white"/>
<path d="M60.6852 15.9135C59.5163 15.9452 58.8213 16.6426 58.6634 17.9106C58.6318 18.2276 58.6002 18.5763 58.5686 18.8616C58.6002 19.1469 58.6002 19.3688 58.6318 19.6224C58.7581 21.5244 59.8954 22.2535 61.8856 21.8731C62.6122 21.7463 63.0544 21.3025 63.2756 20.6051C63.5915 19.6541 63.5915 18.6714 63.4019 17.6887C63.0544 16.2939 62.3595 15.8501 60.6852 15.9135ZM62.1067 20.0345C61.9804 20.6051 61.6329 20.8904 61.0327 20.8904C60.4324 20.8904 60.0218 20.6051 59.927 20.0028C59.8638 19.6541 59.8638 19.3054 59.8006 18.9567C59.8322 18.5763 59.8322 18.1642 59.927 17.7838C60.0849 17.2132 60.4324 16.9596 61.0011 16.9596C61.6013 16.9596 61.9172 17.2766 62.0435 17.8472C62.2647 18.5446 62.2647 19.3054 62.1067 20.0345Z" fill="white"/>
<path d="M69.72 1.64841C69.4041 0.602305 68.7407 0.126801 67.4771 0.126801C66.2451 0.126801 65.5185 0.570605 65.2026 1.61671C64.8867 2.69452 64.9183 3.77233 65.2342 4.85014C65.4237 5.57925 65.9292 6.02305 66.6558 6.11815C68.5196 6.40346 69.7516 5.92795 69.8464 3.67723C69.8464 3.51873 69.8464 3.36023 69.8464 3.23343C69.878 2.69452 69.878 2.18732 69.72 1.64841ZM68.5196 4.37464C68.3932 4.88184 68.0457 5.13545 67.5087 5.13545C66.9717 5.13545 66.5926 4.94524 66.403 4.40634C66.2767 3.99424 66.2767 3.58213 66.2767 3.23343C66.2767 2.78962 66.3083 2.40922 66.403 1.99712C66.561 1.45821 66.9085 1.20461 67.4455 1.17291C68.0141 1.17291 68.3616 1.45821 68.5196 1.96542C68.7407 2.78962 68.7091 3.58213 68.5196 4.37464Z" fill="white"/>
<path d="M54.1776 5.64265C54.1776 5.95966 54.2407 6.11816 54.6198 6.14986C55.378 6.18156 55.4412 6.14986 55.4412 5.38905C55.4412 5.10375 55.4096 4.81845 55.4412 4.53314C55.4728 4.27954 55.2832 3.89914 55.7571 3.80404C56.2309 3.74064 56.2941 4.05764 56.4205 4.37464C56.5468 4.69165 56.7364 5.00865 56.8311 5.35735C56.9891 6.08646 57.463 6.24496 58.1579 6.14986C58.5054 6.11816 58.5686 6.02306 58.4107 5.70606C58.0948 5.00865 57.8104 4.31124 57.4629 3.61384C57.305 3.29683 57.305 3.04323 57.4629 2.75793C57.842 1.96542 58.1579 1.17291 58.537 0.285305C58.3159 0.285305 58.1895 0.285305 58.0632 0.253605C57.3998 0.126804 57.0207 0.380406 56.8311 1.04611C56.7048 1.52162 56.4836 1.99712 56.2941 2.47263C56.1677 2.82133 55.915 2.78963 55.6623 2.75793C55.3464 2.72623 55.4728 2.47263 55.4728 2.28242C55.4728 1.74352 55.4412 1.23631 55.4728 0.697409C55.5043 0.158504 55.1569 0.253605 54.841 0.221905C54.4935 0.221905 54.2091 0.158504 54.2091 0.697409C54.2091 2.37752 54.2091 4.02594 54.1776 5.64265Z" fill="white"/>
<path d="M83.683 15.9769C83.3671 15.9135 83.1144 15.9769 83.0196 16.4207C82.6721 18.1008 82.2615 19.7493 81.914 21.3977C81.8824 21.5245 81.7876 21.683 81.9456 21.8098C82.2931 22.0634 83.0828 21.7781 83.146 21.366C83.1776 20.8588 83.4303 20.732 83.8726 20.7954C84.1253 20.8271 84.3464 20.8271 84.5992 20.7954C85.1046 20.732 85.4205 20.8588 85.4205 21.4294C85.4205 21.7464 85.5785 21.9049 85.926 21.8732C86.1787 21.8415 86.463 21.9366 86.7157 21.8098C86.3051 20.0029 85.9892 18.1642 85.4837 16.389C85.1994 15.5331 84.2833 16.1037 83.683 15.9769ZM84.3464 19.6859C83.5883 19.8444 83.4619 19.5908 83.6515 18.9885C83.841 18.4179 83.9042 17.8472 84.0305 17.2766C84.0621 17.1181 84.0937 16.9596 84.3149 16.9913C84.5044 17.023 84.5044 17.1498 84.5044 17.2766C84.6623 18.0057 84.8835 18.7032 84.9783 19.4323C85.0414 20.0346 84.4728 19.5591 84.3464 19.6859Z" fill="white"/>
<path d="M53.83 13.9482C54.3671 14.0433 54.4618 13.8848 54.3355 13.3458C54.0196 12.1729 53.7984 11 53.5141 9.82712C53.1035 8.0519 53.1035 8.0836 51.3344 8.1153C50.9553 8.1153 50.7974 8.2421 50.7342 8.62251C50.4183 10.2075 50.0392 11.7925 49.6917 13.3458C49.6601 13.536 49.3758 13.8848 49.7865 13.9165C50.1655 13.9482 50.7658 14.2652 50.8605 13.5678C50.9237 12.9971 51.208 12.8386 51.7135 12.902C51.9662 12.9337 52.2505 12.9337 52.5032 12.902C52.8823 12.8703 53.1035 12.9971 53.1035 13.3775C53.1351 13.8848 53.3878 14.0433 53.83 13.9482ZM52.1242 11.8559C51.2396 11.8559 51.2396 11.8559 51.3976 11.0951C51.4923 10.5879 51.5871 10.1124 51.7135 9.63691C51.7767 9.44671 51.7135 9.12971 52.0294 9.12971C52.3137 9.12971 52.2821 9.44671 52.3137 9.63691C52.4401 10.1124 52.4717 10.6196 52.6296 11.0951C52.8191 11.6974 52.7244 12.0144 52.1242 11.8559Z" fill="white"/>
<path d="M82.451 6.21324C82.6406 6.21324 82.8301 6.21324 83.0512 6.21324C84.6308 6.14984 84.6308 6.14984 84.6308 4.59652C84.6308 4.40632 84.6308 4.24782 84.6308 4.05762C84.6308 2.88471 84.6308 2.88471 83.4619 2.94811C83.2408 2.94811 82.9249 2.88471 82.9249 3.26511C82.9249 3.51871 82.7353 3.86742 83.1776 4.05762C83.4619 4.15272 83.5567 4.97693 83.3355 5.13543C82.8617 5.48413 81.756 5.04033 81.5981 4.43802C81.4085 3.64551 81.4717 2.82131 81.5981 2.0288C81.6612 1.6484 81.914 1.39479 82.3562 1.29969C82.9565 1.20459 83.5251 1.26799 84.1253 1.33139C84.3464 1.36309 84.6308 1.42649 84.6308 1.04609C84.6308 0.760788 84.7255 0.412085 84.2517 0.348685C83.5567 0.253584 82.8617 0.126783 82.1667 0.221883C81.1874 0.316984 80.6188 0.824189 80.3976 1.8069C80.1765 2.72621 80.1765 3.64551 80.366 4.53312C80.6188 5.70603 81.1874 6.18154 82.451 6.21324Z" fill="white"/>
<path d="M68.8987 8.1153C68.3301 8.1153 68.2669 8.3372 68.2669 8.8127C68.2985 9.82711 68.2669 10.8732 68.2669 11.8876C68.2669 12.6484 67.8878 13.0288 67.2244 13.0288C66.561 13.0288 66.2767 12.6801 66.2451 11.9193C66.2451 10.8098 66.2135 9.66861 66.2451 8.5591C66.2451 8.05189 65.8976 8.147 65.6133 8.147C65.329 8.147 64.9815 8.02019 64.9815 8.5274C65.0131 9.76371 64.9499 11.0317 65.0131 12.268C65.0447 13.2507 65.6133 13.853 66.561 14.0115C67.0349 14.1067 67.5087 14.1066 68.0142 13.9798C68.9935 13.7579 69.4357 13.219 69.4673 12.2363C69.4989 11.634 69.4673 11.0634 69.4673 10.4611C69.4673 9.89051 69.4357 9.31991 69.4673 8.7493C69.5305 8.3055 69.4357 8.1153 68.8987 8.1153Z" fill="white"/>
<path d="M49.439 3.17011C49.439 3.99432 49.439 4.78683 49.439 5.61103C49.439 5.99144 49.5022 6.18164 49.9444 6.18164C50.9237 6.14994 51.8715 6.14994 52.8508 6.18164C53.3562 6.18164 53.2614 5.86463 53.293 5.57933C53.293 5.26233 53.2614 5.04043 52.8508 5.04043C52.3769 5.07213 51.8715 5.00873 51.3976 5.07213C50.829 5.13553 50.7026 4.91363 50.7026 4.37472C50.7026 3.86752 50.829 3.64562 51.366 3.70902C51.5871 3.74072 51.8083 3.70902 52.0294 3.70902C52.4085 3.70902 52.7876 3.83582 52.7876 3.17011C52.7876 2.53611 52.4085 2.66291 52.061 2.66291C51.7451 2.66291 51.4608 2.63121 51.1449 2.66291C50.6078 2.69461 50.7342 2.3142 50.7342 2.0289C50.7658 1.7436 50.5447 1.33149 51.1133 1.33149C51.6819 1.33149 52.2505 1.29979 52.8192 1.33149C53.1982 1.36319 53.3246 1.17299 53.293 0.82429C53.2614 0.507287 53.3246 0.221985 52.8508 0.221985C51.8715 0.253685 50.9237 0.253685 49.9444 0.221985C49.5654 0.221985 49.439 0.348786 49.4706 0.697489C49.4706 1.5217 49.439 2.3459 49.439 3.17011Z" fill="white"/>
<path d="M48.3017 13.9799C48.586 13.9482 48.9019 13.9799 49.281 13.9799C49.0915 13.5678 48.9967 13.1874 48.8072 12.9021C48.049 11.7292 47.9226 10.5562 48.744 9.31994C48.9019 9.09803 48.9651 8.81273 49.0915 8.52743C49.1547 8.40063 49.2178 8.30553 49.0915 8.17873C48.8387 7.95682 47.8594 8.21043 47.7331 8.52743C47.4804 9.12973 47.2592 9.76374 47.0381 10.366C46.9117 10.683 46.6274 10.683 46.3747 10.6513C46.0588 10.6196 46.1852 10.366 46.1852 10.2075C46.1852 9.66864 46.1536 9.09803 46.1852 8.55913C46.2167 8.08362 45.9008 8.14703 45.6165 8.14703C45.3638 8.17873 44.9531 7.98852 44.9531 8.52743C44.9531 10.2075 44.9531 11.9194 44.9531 13.5995C44.9531 13.7897 44.9531 13.9165 45.2058 13.9799C45.9008 14.1384 46.1536 13.9799 46.1536 13.2508C46.1536 12.9338 46.1536 12.5851 46.1536 12.2681C46.1536 12.0462 46.0272 11.7609 46.4379 11.7292C46.7538 11.6975 46.9749 11.7292 47.1013 12.0779C47.2908 12.5851 47.5435 13.0923 47.7331 13.5995C47.8279 13.8531 47.9858 14.0116 48.3017 13.9799Z" fill="white"/>
<path d="M73.6689 20.7638C73.1318 20.7955 72.5632 20.7638 72.0262 20.7638C71.8366 20.7638 71.6471 20.7955 71.5839 20.5102C71.4259 19.6543 71.5839 19.4007 72.4368 19.4007C72.658 19.4007 72.8791 19.4007 73.1002 19.4007C73.4793 19.4324 73.7004 19.369 73.7004 18.8935C73.7004 18.418 73.4793 18.3546 73.1002 18.3863C72.7527 18.418 72.4052 18.3546 72.0577 18.3863C71.5207 18.4497 71.5523 18.101 71.5839 17.7523C71.6155 17.4353 71.4259 16.9914 72.0262 17.0231C72.5948 17.0548 73.1634 16.9914 73.732 17.0231C74.1427 17.0548 74.2059 16.8646 74.2059 16.5159C74.1743 16.1989 74.2691 15.9136 73.7636 15.9136C72.7843 15.9453 71.8366 15.9453 70.8573 15.9136C70.4782 15.9136 70.3519 16.0087 70.3519 16.3891C70.3835 17.2133 70.3519 18.0059 70.3519 18.8301C70.3519 19.6543 70.3835 20.5102 70.3519 21.3344C70.3519 21.7148 70.4782 21.8099 70.8573 21.8099C71.805 21.7782 72.7527 21.7782 73.7004 21.8099C74.1111 21.8099 74.2059 21.6831 74.2059 21.3027C74.2375 20.8906 74.1111 20.7638 73.6689 20.7638Z" fill="white"/>
<path d="M77.902 18.5447C77.4597 18.3545 76.9859 18.2277 76.5436 18.0375C76.2593 17.9424 76.0066 17.7522 76.0697 17.4035C76.1329 17.0865 76.4172 16.9597 76.7016 16.928C77.2386 16.928 77.744 16.928 78.2811 16.9914C78.597 17.0231 78.6917 16.928 78.7549 16.6427C78.8497 16.1989 78.7549 16.0087 78.2811 15.977C77.8704 15.9453 77.4597 15.8502 77.049 15.8819C76.9543 15.8819 76.8279 15.8819 76.7331 15.8819C75.6591 15.9136 75.0273 16.3574 74.9009 17.2133C74.743 18.2277 75.122 18.83 76.1645 19.2104C76.4488 19.3055 76.7331 19.4006 77.049 19.4957C77.4281 19.6225 77.8072 19.781 77.7124 20.3199C77.6177 20.8271 77.207 20.8905 76.7963 20.8905C76.3541 20.8905 75.8802 20.8271 75.4379 20.7637C75.2168 20.732 75.0273 20.7954 75.0589 21.0807C75.0589 21.3026 74.8377 21.6196 75.28 21.7147C76.1013 21.9049 76.9543 22.0951 77.8072 21.8098C78.5654 21.5562 78.9761 20.9539 79.0076 20.098C78.9761 19.3689 78.6602 18.8934 77.902 18.5447Z" fill="white"/>
<path d="M63.8442 8.1153C62.7386 8.147 61.6329 8.147 60.5588 8.1153C60.1482 8.1153 59.9902 8.2104 59.9902 8.6542C59.9902 9.1297 60.1797 9.2248 60.5904 9.1931C60.7484 9.1614 60.9379 9.1931 61.1275 9.1931C61.5065 9.1614 61.6329 9.28821 61.6013 9.66861C61.5697 10.3026 61.6013 10.9366 61.6013 11.5706C61.6013 12.1729 61.6329 12.8069 61.6013 13.4092C61.5697 13.9164 61.8224 13.9798 62.2331 13.9798C62.6122 13.9798 62.8965 13.9798 62.8965 13.4409C62.8649 12.3631 62.8965 11.2853 62.8965 10.2075C62.8965 9.2248 62.8965 9.1931 63.9074 9.1931C64.3181 9.1931 64.4445 9.0663 64.4445 8.6542C64.3497 8.3055 64.2865 8.1153 63.8442 8.1153Z" fill="white"/>
<path d="M45.5218 1.2997C45.9009 1.268 45.9957 1.4265 45.9957 1.8069C45.9641 2.44091 45.9957 3.07491 45.9957 3.70892C45.9957 4.37462 46.0272 5.00863 45.9957 5.67434C45.9641 6.21324 46.3116 6.11814 46.6275 6.14984C46.9434 6.14984 47.2277 6.18154 47.1961 5.70604C47.1645 4.62823 47.1961 3.51872 47.1961 2.44091C47.1961 1.3948 47.1961 1.3631 48.2386 1.3631C48.6177 1.3631 48.7756 1.268 48.7756 0.855892C48.7756 0.443789 48.7124 0.253587 48.2386 0.285287C47.1645 0.316988 46.0904 0.316988 45.0164 0.285287C44.5741 0.285287 44.4161 0.380388 44.4161 0.855892C44.4161 1.3314 44.6373 1.3948 45.0164 1.3631C45.1743 1.2997 45.3639 1.3314 45.5218 1.2997Z" fill="white"/>
<path d="M73.6056 5.00873C73.2897 5.04043 72.9738 4.97703 72.6895 5.00873C72.2473 5.07213 72.0893 4.91363 72.0893 4.43812C72.1209 3.20181 72.0893 1.9338 72.1209 0.697489C72.1209 0.221985 71.8998 0.221985 71.5523 0.221985C71.2364 0.253685 70.8889 0.0951837 70.8889 0.665789C70.9204 1.49 70.8889 2.3142 70.8889 3.17011C70.8889 3.99432 70.8889 4.85023 70.8889 5.67443C70.8889 6.02314 70.9836 6.14994 71.3311 6.14994C72.0893 6.11824 72.8159 6.11824 73.574 6.14994C74.0163 6.18164 74.2374 6.08654 74.2374 5.54763C74.2374 5.04043 74.0163 4.97703 73.6056 5.00873Z" fill="white"/>
<path d="M86.3682 0.253539C86.0523 0.253539 85.7048 0.158438 85.7048 0.697343C85.7364 2.34576 85.7364 4.02587 85.7048 5.67429C85.7048 6.18149 86.0207 6.14979 86.3366 6.14979C86.6841 6.14979 87 6.14979 86.9684 5.64259C86.9368 4.85008 86.9684 4.02587 86.9684 3.23337C86.9684 2.40916 86.9368 1.58495 86.9684 0.729043C87 0.221838 86.7157 0.221838 86.3682 0.253539Z" fill="white"/>
<path d="M46.1536 16.4841C46.1536 15.9769 45.9325 15.9769 45.5534 15.9769C45.1427 15.9769 44.89 16.0086 44.9216 16.5475C44.9532 17.3717 44.9216 18.1642 44.9216 18.9885C44.9216 19.781 44.9532 20.5735 44.9216 21.366C44.89 21.9049 45.1743 21.9049 45.5534 21.9049C45.9325 21.9049 46.1536 21.8732 46.1536 21.3977C46.122 19.7176 46.122 18.1008 46.1536 16.4841Z" fill="white"/>
<path d="M81.061 18.9568C81.061 18.1009 81.0294 17.245 81.061 16.3891C81.0926 15.8819 80.7451 15.977 80.4608 15.977C80.1448 15.977 79.8605 15.9136 79.8605 16.4208C79.8921 18.1009 79.8921 19.7493 79.8605 21.4294C79.8605 22 80.208 21.8415 80.5239 21.8732C80.8398 21.9049 81.1242 21.9049 81.0926 21.4294C81.0294 20.5735 81.061 19.7493 81.061 18.9568Z" fill="white"/>
</g>
<defs>
<clipPath id="clip0_308_4">
<rect width="87" height="22" fill="white"/>
</clipPath>
</defs>
</svg>
